{"title":"Vittorio De Sica - 1956 - Il Tetto AKA The Roof - DVDRip x264","uid":10334191,"size":1870234678,"categoryP":"video","categoryS":"movies","magnet":"?xt=urn:btih:4fd7f4b032864eaa2d3b0ddb73684e9d1156e1b5&amp;dn=Vittorio+De+Sica+-+1956+-+Il+Tetto+AKA+The+Roof+-+DVDRip+x264&amp;tr=udp%3A%2F%2Ftracker.openbittorrent.com%3A80&amp;tr=udp%3A%2F%2Fopen.demonii.com%3A1337&amp;tr=udp%3A%2F%2Ftracker.coppersurfer.tk%3A6969&amp;tr=udp%3A%2F%2Fexodus.desync.com%3A6969","seeders":3,"leechers":1,"uploader":"rpessoa","files":1,"time":1402446352,"description":"Under provincial Italian law at the time, once a roof is erected, the occupants cannot be evicted from a building. This comedy follows the efforts of a family to erect the roof on a house overnight so that a newlywed couple can have their own home. Written by David Kinne &lt;&lt;a class=&quot;__cf_email__&quot; href=&quot;/cdn-cgi/l/email-protection&quot; data-cfemail=&quot;2d494c5b5f425e6d4a4c5f4a42544148034c5d4c434c03425f4a034c58&quot;&gt;[email&amp;#160;protected]&lt;/a&gt;&lt;script cf-hash='f9e31' type=&quot;text/javascript&quot;&gt;\n/* &lt;![CDATA[ */!function(){try{var t=&quot;currentScript&quot;in document?document.currentScript:function(){for(var t=document.getElementsByTagName(&quot;script&quot;),e=t.length;e--;)if(t[e].getAttribute(&quot;cf-hash&quot;))return t[e]}();if(t&amp;&amp;t.previousSibling){var e,r,n,i,c=t.previousSibling,a=c.getAttribute(&quot;data-cfemail&quot;);if(a){for(e=&quot;&quot;,r=parseInt(a.substr(0,2),16),n=2;a.length-n;n+=2)i=parseInt(a.substr(n,2),16)^r,e+=String.fromCharCode(i);e=document.createTextNode(e),c.parentNode.replaceChild(e,c)}}}catch(u){}}();/* ]]&gt; */&lt;/script&gt;&gt;\n\nSubs: English, Italian\n &lt;a href=&quot;\nhttp://www.imdb.com/title/tt0049839/&quot; rel=&quot;nofollow&quot; target=&quot;_NEW&quot;&gt;\nhttp://www.imdb.com/title/tt0049839/&lt;/a&gt;\n\nGeneral \nUnique ID : 200066373842390163829623607970405012378 (0x968361CC60A3542C96DF26A087CBD39A) \nComplete name : Il.Tetto.AKA.The Roof.1956.DVDRip.x264.mkv \nFormat : Matroska \nFormat version : Version 4 / Version 2 \nFile size : 1.74 GiB \nDuration : 1h 34mn \nOverall bit rate : 2 643 Kbps \nEncoded date : UTC 2014-06-06 11:35:56 \nWriting application : mkvmerge v6.3.0 ('You can't stop me!') built on Jun 28 2013 20:09:41 \nWriting library : libebml v1.3.0 + libmatroska v1.4.0 \n\nVideo \nID : 1 \nFormat : AVC \nFormat/Info : Advanced Video Codec \nFormat profile : &lt;a class=&quot;__cf_email__&quot; href=&quot;/cdn-cgi/l/email-protection&quot; data-cfemail=&quot;7e361719163e324d504f&quot;&gt;[email&amp;#160;protected]&lt;/a&gt;&lt;script cf-hash='f9e31' type=&quot;text/javascript&quot;&gt;\n/* &lt;![CDATA[ */!function(){try{var t=&quot;currentScript&quot;in document?document.currentScript:function(){for(var t=document.getElementsByTagName(&quot;script&quot;),e=t.length;e--;)if(t[e].getAttribute(&quot;cf-hash&quot;))return t[e]}();if(t&amp;&amp;t.previousSibling){var e,r,n,i,c=t.previousSibling,a=c.getAttribute(&quot;data-cfemail&quot;);if(a){for(e=&quot;&quot;,r=parseInt(a.substr(0,2),16),n=2;a.length-n;n+=2)i=parseInt(a.substr(n,2),16)^r,e+=String.fromCharCode(i);e=document.createTextNode(e),c.parentNode.replaceChild(e,c)}}}catch(u){}}();/* ]]&gt; */&lt;/script&gt; \nFormat settings, CABAC : Yes \nFormat settings, ReFrames : 11 frames \nCodec ID : V_MPEG4/ISO/AVC \nDuration : 1h 34mn \nBit rate : 2 399 Kbps \nWidth : 700 pixels \nHeight : 570 pixels \nDisplay aspect ratio : 4:3 \nOriginal display aspect ratio : 4:3 \nFrame rate mode : Constant \nFrame rate : 25.000 fps \nColor space : YUV \nChroma subsampling : 4:2:0 \nBit depth : 8 bits \nScan type : Progressive \nBits/(Pixel*Frame) : 0.240 \nStream size : 1.58 GiB (91%) \nWriting library : x264 core 142 r2431 ac76440 \nEncoding settings : cabac=1 / ref=11 / deblock=1:-3:-3 / analyse=0x3:0x113 / me=umh / subme=11 / psy=1 / psy_rd=1.10:0.00 / mixed_ref=1 / me_range=32 / chroma_me=1 / trellis=2 / 8x8dct=1 / cqm=0 / deadzone=21,11 / fast_pskip=0 / chroma_qp_offset=-2 / threads=12 / lookahead_threads=2 / sliced_threads=0 / nr=0 / decimate=1 / interlaced=0 / bluray_compat=0 / constrained_intra=0 / bframes=9 / b_pyramid=2 / b_adapt=2 / b_bias=0 / direct=3 / weightb=1 / open_gop=0 / weightp=2 / keyint=250 / keyint_min=25 / scenecut=40 / intra_refresh=0 / rc_lookahead=60 / rc=crf / mbtree=1 / crf=18.1 / qcomp=0.65 / qpmin=0 / qpmax=69 / qpstep=4 / ip_ratio=1.40 / aq=2:0.95 \nLanguage : English \nDefault : Yes \nForced : No \n\nAudio \nID : 2 \nFormat : AC-3 \nFormat/Info : Audio Coding 3 \nMode extension : CM (complete main) \nFormat settings, Endianness : Big \nCodec ID : A_AC3 \nDuration : 1h 34mn \nBit rate mode : Constant \nBit rate : 192 Kbps \nChannel(s) : 2 channels \nChannel positions : Front: L R \nSampling rate : 48.0 KHz \nBit depth : 16 bits \nCompression mode : Lossy \nStream size : 130 MiB (7%) \nLanguage : Italian \nDefault : Yes \nForced : No \n\nText #1 \nID : 3 \nFormat : UTF-8 \nCodec ID : S_TEXT/UTF8 \nCodec ID/Info : UTF-8 Plain Text \nLanguage : English \nDefault : Yes \nForced : No \n\nText #2 \nID : 4 \nFormat : UTF-8 \nCodec ID : S_TEXT/UTF8 \nCodec ID/Info : UTF-8 Plain Text \nLanguage : Italian \nDefault : No \nForced : No \n\nMenu \n00:00:00.000 : en:Chapter 1 \n00:01:56.480 : en:Chapter 2 \n00:10:40.120 : en:Chapter 3 \n00:13:41.080 : en:Chapter 4 \n00:20:20.960 : en:Chapter 5 \n00:25:39.720 : en:Chapter 6 \n00:29:08.760 : en:Chapter 7 \n00:36:42.720 : en:Chapter 8 \n00:40:44.520 : en:Chapter 9 \n00:46:01.720 : en:Chapter 10 \n00:52:08.840 : en:Chapter 11 \n00:57:54.120 : en:Chapter 12 \n01:05:47.840 : en:Chapter 13 \n01:12:49.040 : en:Chapter 14 \n01:18:08.840 : en:Chapter 15 \n01:23:20.840 : en:Chapter 16 \n01:30:44.920 : en:Chapter 17 \n01:33:10.000 : en:Chapter 18 \n\n\nMy rip.","torrent":{"xt":"urn:btih:4fd7f4b032864eaa2d3b0ddb73684e9d1156e1b5","amp;dn":"Vittorio+De+Sica+-+1956+-+Il+Tetto+AKA+The+Roof+-+DVDRip+x264","amp;tr":["udp%3A%2F%2Ftracker.openbittorrent.com%3A80","udp%3A%2F%2Fopen.demonii.com%3A1337","udp%3A%2F%2Ftracker.coppersurfer.tk%3A6969","udp%3A%2F%2Fexodus.desync.com%3A6969"],"infoHash":"4fd7f4b032864eaa2d3b0ddb73684e9d1156e1b5","infoHashBuffer":{"type":"Buffer","data":[79,215,244,176,50,134,78,170,45,59,13,219,115,104,78,157,17,86,225,181]},"announce":[],"urlList":[]}}